<?xml version="1.0" encoding="UTF-8"?>
<!DOCTYPE svg PUBLIC "-//W3C//DTD SVG 1.1//EN" "http://www.w3.org/Graphics/SVG/1.1/DTD/svg11.dtd">
<svg xmlns="http://www.w3.org/2000/svg" version="1.1" width="1920px" height="1692px" style="shape-rendering:geometricPrecision; text-rendering:geometricPrecision; image-rendering:optimizeQuality; fill-rule:evenodd; clip-rule:evenodd" xmlns:xlink="http://www.w3.org/1999/xlink">
<g><path style="opacity:0.988" fill="#844c1f" d="M 1170.5,-0.5 C 1179.17,-0.5 1187.83,-0.5 1196.5,-0.5C 1215.94,4.31447 1231.44,14.9811 1243,31.5C 1452.94,333.776 1663.28,635.776 1874,937.5C 1877.25,942.334 1880.25,947.334 1883,952.5C 1884.33,957.401 1884.83,962.401 1884.5,967.5C 1882.73,972.14 1880.4,976.473 1877.5,980.5C 1796.9,999.395 1715.9,1017.89 1634.5,1036C 1518.91,1061.26 1403.25,1086.1 1287.5,1110.5C 1109.14,1138.31 930.142,1161.65 750.5,1180.5C 749.274,1180.48 748.274,1180.15 747.5,1179.5C 1082.95,1105.88 1418.28,1031.88 1753.5,957.5C 1742.78,943.434 1740.61,928.101 1747,911.5C 1754.68,898.744 1765.85,891.077 1780.5,888.5C 1590.54,609.407 1400.2,330.573 1209.5,52C 1186.08,56.5781 1167.42,49.0781 1153.5,29.5C 1152.67,29.1667 1151.83,28.8333 1151,28.5C 1011.54,55.6916 872.042,82.6916 732.5,109.5C 771.817,97.9634 812.483,86.4634 854.5,75C 912.109,60.1689 969.109,44.3355 1025.5,27.5C 1074.05,18.6554 1122.39,9.32211 1170.5,-0.5 Z"/></g>
<g><path style="opacity:1" fill="#c78f34" d="M 1199.5,7.5 C 1194.13,7.39212 1188.8,7.72546 1183.5,8.5C 1186.36,6.99421 1189.52,6.32755 1193,6.5C 1195.36,6.50393 1197.53,6.83726 1199.5,7.5 Z"/></g>
<g><path style="opacity:1" fill="#f5bd43" d="M 1199.5,7.5 C 1206.57,8.6196 1212.4,11.9529 1217,17.5C 1219.82,24.7066 1218.32,30.8732 1212.5,36C 1201.98,42.0616 1190.98,43.0616 1179.5,39C 1165.43,29.6281 1165.09,19.9614 1178.5,10C 1180.02,8.99136 1181.69,8.49136 1183.5,8.5C 1188.8,7.72546 1194.13,7.39212 1199.5,7.5 Z"/></g>
<g><path style="opacity:0.994" fill="#a05925" d="M 1025.5,27.5 C 969.109,44.3355 912.109,60.1689 854.5,75C 812.483,86.4634 771.817,97.9634 732.5,109.5C 601.68,135.196 470.68,160.696 339.5,186C 337.427,186.118 336.093,187.118 335.5,189C 340.436,199.808 340.769,210.642 336.5,221.5C 336.631,220.761 336.464,220.094 336,219.5C 331.319,221.337 326.486,222.671 321.5,223.5C 321.625,228.794 322.625,233.794 324.5,238.5C 317.597,243.365 309.93,246.698 301.5,248.5C 328.123,314.075 354.456,379.742 380.5,445.5C 379.441,447.726 379.608,450.059 381,452.5C 436.686,610.39 499.519,765.39 569.5,917.5C 600.223,993.298 630.723,1069.3 661,1145.5C 661.388,1146.43 662.055,1147.09 663,1147.5C 669.895,1145.4 676.729,1145.07 683.5,1146.5C 680.813,1146.34 678.146,1146.5 675.5,1147C 678.522,1151.88 680.856,1157.04 682.5,1162.5C 669.861,1162.07 660.027,1167.07 653,1177.5C 649.462,1194 655.962,1204.5 672.5,1209C 686.454,1211.15 697.954,1206.98 707,1196.5C 709.174,1192.45 710.007,1188.12 709.5,1183.5C 710.117,1183.61 710.617,1183.94 711,1184.5C 716.933,1183.85 722.766,1183.19 728.5,1182.5C 734.857,1181.72 741.19,1180.72 747.5,1179.5C 748.274,1180.15 749.274,1180.48 750.5,1180.5C 930.142,1161.65 1109.14,1138.31 1287.5,1110.5C 1144.68,1141.53 1001.68,1172.37 858.5,1203C 791.578,1217.31 724.578,1231.15 657.5,1244.5C 515.783,889.398 373.783,534.398 231.5,179.5C 496.167,128.833 760.833,78.1667 1025.5,27.5 Z"/></g>
<g><path style="opacity:1" fill="#f3bb42" d="M 747.5,1179.5 C 741.19,1180.72 734.857,1181.72 728.5,1182.5C 724.028,1168.19 715.028,1157.69 701.5,1151C 695.705,1148.57 689.705,1147.07 683.5,1146.5C 676.729,1145.07 669.895,1145.4 663,1147.5C 662.055,1147.09 661.388,1146.43 661,1145.5C 630.723,1069.3 600.223,993.298 569.5,917.5C 506.871,759.931 443.871,602.598 380.5,445.5C 354.456,379.742 328.123,314.075 301.5,248.5C 309.93,246.698 317.597,243.365 324.5,238.5C 330.218,234.07 334.218,228.403 336.5,221.5C 340.769,210.642 340.436,199.808 335.5,189C 336.093,187.118 337.427,186.118 339.5,186C 470.68,160.696 601.68,135.196 732.5,109.5C 872.042,82.6916 1011.54,55.6916 1151,28.5C 1151.83,28.8333 1152.67,29.1667 1153.5,29.5C 1167.42,49.0781 1186.08,56.5781 1209.5,52C 1400.2,330.573 1590.54,609.407 1780.5,888.5C 1765.85,891.077 1754.68,898.744 1747,911.5C 1740.61,928.101 1742.78,943.434 1753.5,957.5C 1418.28,1031.88 1082.95,1105.88 747.5,1179.5 Z"/></g>
<g><path style="opacity:1" fill="#844c1f" d="M 683.5,1136.5 C 679.03,1135.51 674.363,1135.18 669.5,1135.5C 666.621,1127.41 662.954,1119.74 658.5,1112.5C 552.08,848.928 446.413,584.928 341.5,320.5C 335.204,297.058 329.87,273.391 325.5,249.5C 337.664,241.161 345.331,229.827 348.5,215.5C 430.476,193.056 512.142,170.056 593.5,146.5C 778.152,110.502 962.819,74.502 1147.5,38.5C 1154.16,45.9952 1161.82,52.1619 1170.5,57C 1181.64,61.8123 1193.3,63.8123 1205.5,63C 1392.12,335.747 1578.62,608.58 1765,881.5C 1765.62,882.449 1765.45,883.282 1764.5,884C 1745.14,892.858 1734.8,908.025 1733.5,929.5C 1734.14,937.408 1735.8,945.075 1738.5,952.5C 1404.18,1025.03 1070.01,1098.36 736,1172.5C 724.602,1151.71 707.102,1139.71 683.5,1136.5 Z"/></g>
<g><path style="opacity:1" fill="#a15a25" d="M 593.5,146.5 C 512.142,170.056 430.476,193.056 348.5,215.5C 348.726,208.124 348.392,200.791 347.5,193.5C 429.499,177.834 511.499,162.167 593.5,146.5 Z"/></g>
<g><path style="opacity:0.999" fill="#683716" d="M 223.5,181.5 C 366.833,539.5 510.167,897.5 653.5,1255.5C 654.5,1255.5 655.5,1255.5 656.5,1255.5C 636.674,1263.17 616.841,1271.17 597,1279.5C 596.228,1279.36 595.561,1279.02 595,1278.5C 455.732,919.527 316.565,560.527 177.5,201.5C 192.606,194.28 207.939,187.613 223.5,181.5 Z"/></g>
<g><path style="opacity:1" fill="#cf814c" d="M 231.5,179.5 C 373.783,534.398 515.783,889.398 657.5,1244.5C 724.578,1231.15 791.578,1217.31 858.5,1203C 1001.68,1172.37 1144.68,1141.53 1287.5,1110.5C 1403.25,1086.1 1518.91,1061.26 1634.5,1036C 1715.9,1017.89 1796.9,999.395 1877.5,980.5C 1873.7,985.445 1868.7,988.612 1862.5,990C 1460.49,1078.5 1058.49,1167 656.5,1255.5C 655.5,1255.5 654.5,1255.5 653.5,1255.5C 510.167,897.5 366.833,539.5 223.5,181.5C 225.961,180.469 228.627,179.802 231.5,179.5 Z"/></g>
<g><path style="opacity:1" fill="#f5bd43" d="M 284.5,188.5 C 294.933,187.552 304.599,189.718 313.5,195C 324.287,205.04 323.954,214.706 312.5,224C 298.792,231.259 285.125,231.259 271.5,224C 261.754,215.221 261.087,205.888 269.5,196C 274.324,192.921 279.324,190.421 284.5,188.5 Z"/></g>
<g><path style="opacity:0.988" fill="#49260e" d="M 177.5,201.5 C 316.565,560.527 455.732,919.527 595,1278.5C 595.561,1279.02 596.228,1279.36 597,1279.5C 616.841,1271.17 636.674,1263.17 656.5,1255.5C 1058.49,1167 1460.49,1078.5 1862.5,990C 1868.7,988.612 1873.7,985.445 1877.5,980.5C 1880.4,976.473 1882.73,972.14 1884.5,967.5C 1884.67,981.171 1884.5,994.837 1884,1008.5C 1881.93,1015.57 1877.43,1020.41 1870.5,1023C 1853.22,1027.15 1835.89,1030.99 1818.5,1034.5C 1802.41,1037.13 1786.41,1040.29 1770.5,1044C 1401.57,1126.09 1032.57,1207.76 663.5,1289C 637.764,1299.47 612.097,1310.14 586.5,1321C 571.401,1320.68 556.401,1319.18 541.5,1316.5C 538.201,1315.62 534.868,1315.46 531.5,1316C 504.415,1328.75 484.248,1348.59 471,1375.5C 443.528,1433.43 438.195,1493.43 455,1555.5C 464.204,1588.44 481.371,1616.27 506.5,1639C 524.771,1653.82 545.437,1659.98 568.5,1657.5C 576.374,1652.74 584.041,1647.74 591.5,1642.5C 597.67,1638.58 604.003,1634.91 610.5,1631.5C 634.122,1630.52 657.788,1630.19 681.5,1630.5C 688.687,1630.82 695.687,1630.49 702.5,1629.5C 1106.67,1538.12 1510.67,1446.12 1914.5,1353.5C 1916.68,1355.86 1918.35,1358.53 1919.5,1361.5C 1919.5,1367.17 1919.5,1372.83 1919.5,1378.5C 1915.94,1388.55 1908.94,1395.05 1898.5,1398C 1503.5,1486.33 1108.5,1574.67 713.5,1663C 681.195,1664.15 648.861,1665.15 616.5,1666C 599.419,1675.38 582.085,1683.88 564.5,1691.5C 554.167,1691.5 543.833,1691.5 533.5,1691.5C 501.09,1683.61 475.257,1665.95 456,1638.5C 443.419,1620.29 433.586,1600.62 426.5,1579.5C 411.124,1528.95 408.291,1477.61 418,1425.5C 419.188,1419.56 420.522,1413.56 422,1407.5C 426.91,1389.22 433.744,1371.56 442.5,1354.5C 447.205,1345.89 452.372,1337.56 458,1329.5C 461.495,1326.25 464.495,1322.58 467,1318.5C 471.1,1315.22 474.933,1311.88 478.5,1308.5C 492.476,1294.85 509.143,1286.51 528.5,1283.5C 545.486,1284.71 562.486,1285.71 579.5,1286.5C 444.076,925.554 308.076,564.888 171.5,204.5C 173.25,203.13 175.25,202.13 177.5,201.5 Z"/></g>
<g><path style="opacity:0.999" fill="#98572a" d="M 171.5,204.5 C 308.076,564.888 444.076,925.554 579.5,1286.5C 562.486,1285.71 545.486,1284.71 528.5,1283.5C 528.5,1283.17 528.5,1282.83 528.5,1282.5C 531.5,1282.5 534.5,1282.5 537.5,1282.5C 503.031,1189.6 467.864,1096.93 432,1004.5C 430.438,1000.99 429.605,997.319 429.5,993.5C 429.81,990.287 429.477,987.287 428.5,984.5C 427.341,979.683 424.674,976.016 420.5,973.5C 395.57,909.376 371.237,845.042 347.5,780.5C 347.5,780.167 347.5,779.833 347.5,779.5C 348.929,770.357 345.595,763.69 337.5,759.5C 318.098,705.963 298.098,652.63 277.5,599.5C 277.5,598.5 277.5,597.5 277.5,596.5C 278.929,587.357 275.595,580.69 267.5,576.5C 247.233,519.87 226.066,463.537 204,407.5C 202.438,403.986 201.605,400.319 201.5,396.5C 201.5,396.167 201.5,395.833 201.5,395.5C 202.09,387.011 198.757,380.677 191.5,376.5C 170.367,319.768 149.033,263.101 127.5,206.5C 142.11,205.233 156.777,204.566 171.5,204.5 Z"/></g>
<g><path style="opacity:0.996" fill="#683716" d="M 121.5,206.5 C 142.369,262.44 163.035,318.44 183.5,374.5C 182.833,374.5 182.167,374.5 181.5,374.5C 182.219,372.305 181.219,370.805 178.5,370C 172.309,367.688 166.309,368.021 160.5,371C 127.822,405.486 101.989,444.653 83,488.5C 66.7037,413.392 54.537,337.726 46.5,261.5C 64.9899,234.351 89.9899,216.018 121.5,206.5 Z"/></g>
<g><path style="opacity:0.999" fill="#be7340" d="M 121.5,206.5 C 123.5,206.5 125.5,206.5 127.5,206.5C 149.033,263.101 170.367,319.768 191.5,376.5C 188.994,375.25 186.327,374.584 183.5,374.5C 163.035,318.44 142.369,262.44 121.5,206.5 Z"/></g>
<g><path style="opacity:1" fill="#864e1f" d="M 336.5,221.5 C 334.218,228.403 330.218,234.07 324.5,238.5C 322.625,233.794 321.625,228.794 321.5,223.5C 326.486,222.671 331.319,221.337 336,219.5C 336.464,220.094 336.631,220.761 336.5,221.5 Z"/></g>
<g><path style="opacity:1" fill="#a05a25" d="M 325.5,249.5 C 329.87,273.391 335.204,297.058 341.5,320.5C 332.276,299.037 323.276,277.37 314.5,255.5C 317.967,253.264 321.634,251.264 325.5,249.5 Z"/></g>
<g><path style="opacity:0.982" fill="#532c12" d="M 46.5,261.5 C 54.537,337.726 66.7037,413.392 83,488.5C 101.989,444.653 127.822,405.486 160.5,371C 166.309,368.021 172.309,367.688 178.5,370C 181.219,370.805 182.219,372.305 181.5,374.5C 174.591,375.884 169.091,379.551 165,385.5C 131.257,423.965 105.424,467.298 87.5,515.5C 86.7326,506.996 85.066,498.663 82.5,490.5C 67.3534,527.42 58.02,565.753 54.5,605.5C 39.5965,567.305 24.7632,528.972 10,490.5C 4.97214,472.313 1.47214,453.979 -0.5,435.5C -0.5,418.833 -0.5,402.167 -0.5,385.5C 3.87243,342.885 17.7058,303.552 41,267.5C 42.617,265.237 44.4503,263.237 46.5,261.5 Z"/></g>
<g><path style="opacity:0.998" fill="#f4bc43" d="M 181.5,374.5 C 182.167,374.5 182.833,374.5 183.5,374.5C 186.327,374.584 188.994,375.25 191.5,376.5C 198.757,380.677 202.09,387.011 201.5,395.5C 193.85,392.361 186.516,392.861 179.5,397C 105.725,476.793 70.7253,571.293 74.5,680.5C 70.9763,676.119 68.4763,671.119 67,665.5C 65.6963,655.211 65.1963,644.878 65.5,634.5C 66.6664,627.023 67.333,619.357 67.5,611.5C 68.8063,606.384 69.473,601.051 69.5,595.5C 72.4058,568.121 78.4058,541.454 87.5,515.5C 105.424,467.298 131.257,423.965 165,385.5C 169.091,379.551 174.591,375.884 181.5,374.5 Z"/></g>
<g><path style="opacity:0.997" fill="#c89735" d="M 201.5,395.5 C 201.5,395.833 201.5,396.167 201.5,396.5C 200.426,400.369 198.759,404.036 196.5,407.5C 175.121,426.383 157.621,448.383 144,473.5C 125.236,508.961 111.736,546.294 103.5,585.5C 95.3527,620.87 90.0194,656.537 87.5,692.5C 81.887,689.887 77.5537,685.887 74.5,680.5C 70.7253,571.293 105.725,476.793 179.5,397C 186.516,392.861 193.85,392.361 201.5,395.5 Z"/></g>
<g><path style="opacity:1" fill="#be7340" d="M 201.5,396.5 C 201.605,400.319 202.438,403.986 204,407.5C 226.066,463.537 247.233,519.87 267.5,576.5C 263.901,575.656 260.234,575.323 256.5,575.5C 257.398,574.842 258.398,574.176 259.5,573.5C 259.376,572.893 259.043,572.56 258.5,572.5C 238.606,517.144 217.939,462.144 196.5,407.5C 198.759,404.036 200.426,400.369 201.5,396.5 Z"/></g>
<g><path style="opacity:1" fill="#683716" d="M 196.5,407.5 C 217.939,462.144 238.606,517.144 258.5,572.5C 252.226,567.787 245.56,567.287 238.5,571C 196.407,614.676 166.24,665.51 148,723.5C 131.659,677.14 117.325,630.14 105,582.5C 104.768,583.737 104.268,584.737 103.5,585.5C 111.736,546.294 125.236,508.961 144,473.5C 157.621,448.383 175.121,426.383 196.5,407.5 Z"/></g>
<g><path style="opacity:1" fill="#895020" d="M 380.5,445.5 C 443.871,602.598 506.871,759.931 569.5,917.5C 499.519,765.39 436.686,610.39 381,452.5C 379.608,450.059 379.441,447.726 380.5,445.5 Z"/></g>
<g><path style="opacity:0.993" fill="#43240e" d="M 87.5,515.5 C 78.4058,541.454 72.4058,568.121 69.5,595.5C 68.0427,600.598 67.376,605.931 67.5,611.5C 67.333,619.357 66.6664,627.023 65.5,634.5C 61.5584,624.948 57.8917,615.281 54.5,605.5C 58.02,565.753 67.3534,527.42 82.5,490.5C 85.066,498.663 86.7326,506.996 87.5,515.5 Z"/></g>
<g><path style="opacity:0.999" fill="#f3bc43" d="M 256.5,575.5 C 260.234,575.323 263.901,575.656 267.5,576.5C 275.595,580.69 278.929,587.357 277.5,596.5C 270.918,592.808 264.251,592.642 257.5,596C 182.756,675.356 147.089,769.856 150.5,879.5C 146.694,874.882 144.194,869.549 143,863.5C 142.079,854.187 141.579,844.853 141.5,835.5C 143.423,805.281 147.756,775.281 154.5,745.5C 172.693,681.258 204.693,625.092 250.5,577C 252.345,575.872 254.345,575.372 256.5,575.5 Z"/></g>
<g><path style="opacity:0.984" fill="#532c12" d="M 258.5,572.5 C 259.043,572.56 259.376,572.893 259.5,573.5C 258.398,574.176 257.398,574.842 256.5,575.5C 254.345,575.372 252.345,575.872 250.5,577C 204.693,625.092 172.693,681.258 154.5,745.5C 152.646,738.758 150.479,732.091 148,725.5C 139.115,751.759 133.615,778.759 131.5,806.5C 116.32,768.789 101.654,730.789 87.5,692.5C 90.0194,656.537 95.3527,620.87 103.5,585.5C 104.268,584.737 104.768,583.737 105,582.5C 117.325,630.14 131.659,677.14 148,723.5C 166.24,665.51 196.407,614.676 238.5,571C 245.56,567.287 252.226,567.787 258.5,572.5 Z"/></g>
<g><path style="opacity:0.997" fill="#c89735" d="M 277.5,596.5 C 277.5,597.5 277.5,598.5 277.5,599.5C 276.229,602.968 274.229,605.968 271.5,608.5C 244.561,633.334 223.727,662.667 209,696.5C 193.292,732.125 182.125,769.125 175.5,807.5C 169.389,835.715 165.723,864.382 164.5,893.5C 158.423,890.151 153.756,885.484 150.5,879.5C 147.089,769.856 182.756,675.356 257.5,596C 264.251,592.642 270.918,592.808 277.5,596.5 Z"/></g>
<g><path style="opacity:1" fill="#be7340" d="M 277.5,599.5 C 298.098,652.63 318.098,705.963 337.5,759.5C 334.692,758.071 331.692,757.405 328.5,757.5C 328.737,756.209 328.404,755.209 327.5,754.5C 310.305,707.42 292.805,660.42 275,613.5C 274.451,611.24 273.284,609.574 271.5,608.5C 274.229,605.968 276.229,602.968 277.5,599.5 Z"/></g>
<g><path style="opacity:1" fill="#b78731" d="M 69.5,595.5 C 69.473,601.051 68.8063,606.384 67.5,611.5C 67.376,605.931 68.0427,600.598 69.5,595.5 Z"/></g>
<g><path style="opacity:1" fill="#683716" d="M 271.5,608.5 C 273.284,609.574 274.451,611.24 275,613.5C 292.805,660.42 310.305,707.42 327.5,754.5C 320.694,751.701 314.027,751.868 307.5,755C 267.03,797.405 237.363,846.572 218.5,902.5C 203.845,870.188 190.011,837.522 177,804.5C 176.768,805.737 176.268,806.737 175.5,807.5C 182.125,769.125 193.292,732.125 209,696.5C 223.727,662.667 244.561,633.334 271.5,608.5 Z"/></g>
<g><path style="opacity:0.99" fill="#43240e" d="M 154.5,745.5 C 147.756,775.281 143.423,805.281 141.5,835.5C 138.167,825.833 134.833,816.167 131.5,806.5C 133.615,778.759 139.115,751.759 148,725.5C 150.479,732.091 152.646,738.758 154.5,745.5 Z"/></g>
<g><path style="opacity:0.999" fill="#f3bc43" d="M 328.5,757.5 C 331.692,757.405 334.692,758.071 337.5,759.5C 345.595,763.69 348.929,770.357 347.5,779.5C 342.205,776.638 336.539,775.804 330.5,777C 317.575,788.59 306.075,801.423 296,815.5C 242.139,889.202 216.972,971.869 220.5,1063.5C 216.961,1058.42 214.461,1052.75 213,1046.5C 211.992,1037.1 211.825,1027.76 212.5,1018.5C 213.403,985.273 218.07,952.607 226.5,920.5C 245.107,860.767 275.441,807.934 317.5,762C 320.729,759.384 324.396,757.884 328.5,757.5 Z"/></g>
<g><path style="opacity:0.998" fill="#c89735" d="M 347.5,779.5 C 347.5,779.833 347.5,780.167 347.5,780.5C 346.312,784.537 344.312,788.204 341.5,791.5C 314.208,817.048 293.042,847.048 278,881.5C 265.383,910.185 255.883,939.851 249.5,970.5C 241.123,1005.47 236.123,1040.81 234.5,1076.5C 228.947,1073.07 224.281,1068.73 220.5,1063.5C 216.972,971.869 242.139,889.202 296,815.5C 306.075,801.423 317.575,788.59 330.5,777C 336.539,775.804 342.205,776.638 347.5,779.5 Z"/></g>
<g><path style="opacity:1" fill="#be7340" d="M 347.5,780.5 C 371.237,845.042 395.57,909.376 420.5,973.5C 417.034,971.908 413.367,971.242 409.5,971.5C 387.802,911.065 365.136,851.065 341.5,791.5C 344.312,788.204 346.312,784.537 347.5,780.5 Z"/></g>
<g><path style="opacity:1" fill="#683716" d="M 341.5,791.5 C 365.136,851.065 387.802,911.065 409.5,971.5C 409.167,971.5 408.833,971.5 408.5,971.5C 407.177,969.314 405.177,967.814 402.5,967C 394.185,965.406 387.352,967.906 382,974.5C 353.492,1006.69 330.159,1042.36 312,1081.5C 290.731,1045.97 270.731,1009.64 252,972.5C 251.292,971.619 250.458,970.953 249.5,970.5C 255.883,939.851 265.383,910.185 278,881.5C 293.042,847.048 314.208,817.048 341.5,791.5 Z"/></g>
<g><path style="opacity:0.982" fill="#532c12" d="M 327.5,754.5 C 328.404,755.209 328.737,756.209 328.5,757.5C 324.396,757.884 320.729,759.384 317.5,762C 275.441,807.934 245.107,860.767 226.5,920.5C 224.289,915.034 221.789,909.7 219,904.5C 209.648,932.094 203.815,960.427 201.5,989.5C 188.654,957.789 176.32,925.789 164.5,893.5C 165.723,864.382 169.389,835.715 175.5,807.5C 176.268,806.737 176.768,805.737 177,804.5C 190.011,837.522 203.845,870.188 218.5,902.5C 237.363,846.572 267.03,797.405 307.5,755C 314.027,751.868 320.694,751.701 327.5,754.5 Z"/></g>
<g><path style="opacity:1" fill="#f5bd43" d="M 1786.5,900.5 C 1803.38,898.505 1816.88,904.172 1827,917.5C 1831.47,936.687 1823.97,948.853 1804.5,954C 1788.76,957.864 1775.59,953.698 1765,941.5C 1756.68,925.968 1760.18,913.801 1775.5,905C 1779.27,903.441 1782.93,901.941 1786.5,900.5 Z"/></g>
<g><path style="opacity:0.989" fill="#43230e" d="M 226.5,920.5 C 218.07,952.607 213.403,985.273 212.5,1018.5C 208.036,1009.22 204.369,999.554 201.5,989.5C 203.815,960.427 209.648,932.094 219,904.5C 221.789,909.7 224.289,915.034 226.5,920.5 Z"/></g>
<g><path style="opacity:0.988" fill="#532c12" d="M 408.5,971.5 C 405.984,971.755 403.65,972.589 401.5,974C 366.673,1010.34 339.673,1051.84 320.5,1098.5C 319.158,1092.82 316.491,1087.82 312.5,1083.5C 295.161,1121.19 285.161,1160.86 282.5,1202.5C 265.987,1160.79 249.987,1118.79 234.5,1076.5C 236.123,1040.81 241.123,1005.47 249.5,970.5C 250.458,970.953 251.292,971.619 252,972.5C 270.731,1009.64 290.731,1045.97 312,1081.5C 330.159,1042.36 353.492,1006.69 382,974.5C 387.352,967.906 394.185,965.406 402.5,967C 405.177,967.814 407.177,969.314 408.5,971.5 Z"/></g>
<g><path style="opacity:0.999" fill="#f3bc43" d="M 408.5,971.5 C 408.833,971.5 409.167,971.5 409.5,971.5C 413.367,971.242 417.034,971.908 420.5,973.5C 424.674,976.016 427.341,979.683 428.5,984.5C 428.664,987.187 428.497,989.854 428,992.5C 422.741,989.368 417.241,988.868 411.5,991C 401.988,999.846 393.155,1009.35 385,1019.5C 326.691,1095.15 298.858,1180.82 301.5,1276.5C 298.543,1272.25 296.377,1267.58 295,1262.5C 293.662,1252.22 293.162,1241.88 293.5,1231.5C 294.926,1185.7 303.926,1141.37 320.5,1098.5C 339.673,1051.84 366.673,1010.34 401.5,974C 403.65,972.589 405.984,971.755 408.5,971.5 Z"/></g>
<g><path style="opacity:0.997" fill="#c89735" d="M 428.5,984.5 C 429.477,987.287 429.81,990.287 429.5,993.5C 428.103,998.629 425.436,1002.96 421.5,1006.5C 392.759,1033.92 370.926,1066.26 356,1103.5C 351.466,1113.94 347.633,1124.6 344.5,1135.5C 328.408,1185.63 318.741,1236.96 315.5,1289.5C 309.567,1286.53 304.9,1282.2 301.5,1276.5C 298.858,1180.82 326.691,1095.15 385,1019.5C 393.155,1009.35 401.988,999.846 411.5,991C 417.241,988.868 422.741,989.368 428,992.5C 428.497,989.854 428.664,987.187 428.5,984.5 Z"/></g>
<g><path style="opacity:1" fill="#bf7340" d="M 429.5,993.5 C 429.605,997.319 430.438,1000.99 432,1004.5C 467.864,1096.93 503.031,1189.6 537.5,1282.5C 534.5,1282.5 531.5,1282.5 528.5,1282.5C 493.597,1190.97 458.764,1099.3 424,1007.5C 423.329,1006.75 422.496,1006.41 421.5,1006.5C 425.436,1002.96 428.103,998.629 429.5,993.5 Z"/></g>
<g><path style="opacity:1" fill="#683716" d="M 421.5,1006.5 C 422.496,1006.41 423.329,1006.75 424,1007.5C 458.764,1099.3 493.597,1190.97 528.5,1282.5C 528.5,1282.83 528.5,1283.17 528.5,1283.5C 509.143,1286.51 492.476,1294.85 478.5,1308.5C 477.325,1308.72 476.325,1308.39 475.5,1307.5C 428.396,1252.55 384.729,1195.21 344.5,1135.5C 347.633,1124.6 351.466,1113.94 356,1103.5C 370.926,1066.26 392.759,1033.92 421.5,1006.5 Z"/></g>
<g><path style="opacity:1" fill="#b6a07d" d="M 1818.5,1034.5 C 1816.97,1040.31 1815.3,1045.98 1813.5,1051.5C 1812.73,1050.85 1811.73,1050.52 1810.5,1050.5C 1805.84,1051.4 1801.18,1052.23 1796.5,1053C 1364.57,1151.63 932.9,1249.79 501.5,1347.5C 512.261,1333.79 525.594,1323.46 541.5,1316.5C 556.401,1319.18 571.401,1320.68 586.5,1321C 612.097,1310.14 637.764,1299.47 663.5,1289C 1032.57,1207.76 1401.57,1126.09 1770.5,1044C 1786.41,1040.29 1802.41,1037.13 1818.5,1034.5 Z"/></g>
<g><path style="opacity:1" fill="#a78d6a" d="M 1813.5,1051.5 C 1813.43,1054.43 1812.77,1057.09 1811.5,1059.5C 1374.11,1158.68 936.778,1258.18 499.5,1358C 497.19,1358.5 494.857,1358.66 492.5,1358.5C 495.152,1354.52 498.152,1350.85 501.5,1347.5C 932.9,1249.79 1364.57,1151.63 1796.5,1053C 1801.18,1052.23 1805.84,1051.4 1810.5,1050.5C 1811.73,1050.52 1812.73,1050.85 1813.5,1051.5 Z"/></g>
<g><path style="opacity:1" fill="#b7a17e" d="M 1811.5,1059.5 C 1810.66,1066.72 1809.32,1073.72 1807.5,1080.5C 1807.5,1079.17 1807.5,1077.83 1807.5,1076.5C 1366.07,1175.85 924.738,1276.19 483.5,1377.5C 482.702,1377.04 482.369,1376.38 482.5,1375.5C 485.065,1369.37 488.399,1363.7 492.5,1358.5C 494.857,1358.66 497.19,1358.5 499.5,1358C 936.778,1258.18 1374.11,1158.68 1811.5,1059.5 Z"/></g>
<g><path style="opacity:1" fill="#a78d6a" d="M 1807.5,1080.5 C 1807.5,1081.5 1807.5,1082.5 1807.5,1083.5C 1806.69,1084.47 1805.69,1085.3 1804.5,1086C 1361.95,1187.08 919.28,1287.58 476.5,1387.5C 477.992,1383.18 479.992,1379.18 482.5,1375.5C 482.369,1376.38 482.702,1377.04 483.5,1377.5C 924.738,1276.19 1366.07,1175.85 1807.5,1076.5C 1807.5,1077.83 1807.5,1079.17 1807.5,1080.5 Z"/></g>
<g><path style="opacity:0.993" fill="#43230e" d="M 320.5,1098.5 C 303.926,1141.37 294.926,1185.7 293.5,1231.5C 289.558,1221.95 285.892,1212.28 282.5,1202.5C 285.161,1160.86 295.161,1121.19 312.5,1083.5C 316.491,1087.82 319.158,1092.82 320.5,1098.5 Z"/></g>
<g><path style="opacity:1" fill="#b8a17e" d="M 1807.5,1083.5 C 1806.83,1088.83 1806.17,1094.17 1805.5,1099.5C 1785.41,1102.75 1765.41,1106.58 1745.5,1111C 1388.79,1189.54 1032.46,1269.88 676.5,1352C 668.133,1354.68 660.133,1358.18 652.5,1362.5C 650.167,1363.83 647.833,1365.17 645.5,1366.5C 645.265,1365.9 644.765,1365.57 644,1365.5C 616.905,1372.04 589.739,1378.21 562.5,1384C 560.68,1384.2 559.347,1385.03 558.5,1386.5C 554.924,1385.19 551.258,1384.69 547.5,1385C 546.837,1386.52 545.837,1387.69 544.5,1388.5C 520.511,1393.82 496.511,1399.16 472.5,1404.5C 471.287,1404.25 470.62,1403.59 470.5,1402.5C 472.11,1397.34 474.11,1392.34 476.5,1387.5C 919.28,1287.58 1361.95,1187.08 1804.5,1086C 1805.69,1085.3 1806.69,1084.47 1807.5,1083.5 Z"/></g>
<g><path style="opacity:1" fill="#e3c79d" d="M 1805.5,1099.5 C 1805.5,1100.5 1805.5,1101.5 1805.5,1102.5C 1795.46,1104.01 1785.46,1105.85 1775.5,1108C 1402.74,1192.81 1030.08,1277.81 657.5,1363C 655.613,1363.78 653.946,1363.61 652.5,1362.5C 660.133,1358.18 668.133,1354.68 676.5,1352C 1032.46,1269.88 1388.79,1189.54 1745.5,1111C 1765.41,1106.58 1785.41,1102.75 1805.5,1099.5 Z"/></g>
<g><path style="opacity:0.999" fill="#d1b085" d="M 1805.5,1102.5 C 1804.7,1105.43 1804.37,1108.43 1804.5,1111.5C 1408.13,1201.39 1011.8,1291.39 615.5,1381.5C 625.187,1375.99 635.187,1370.99 645.5,1366.5C 647.833,1365.17 650.167,1363.83 652.5,1362.5C 653.946,1363.61 655.613,1363.78 657.5,1363C 1030.08,1277.81 1402.74,1192.81 1775.5,1108C 1785.46,1105.85 1795.46,1104.01 1805.5,1102.5 Z"/></g>
<g><path style="opacity:0.999" fill="#e5c99e" d="M 1804.5,1111.5 C 1804.53,1116.86 1804.19,1122.2 1803.5,1127.5C 1402.49,1218.1 1001.49,1309.27 600.5,1401C 577.431,1405.85 554.431,1411.01 531.5,1416.5C 530.584,1416.46 529.917,1416.12 529.5,1415.5C 531.642,1409.88 534.308,1404.55 537.5,1399.5C 538.167,1399.5 538.5,1399.17 538.5,1398.5C 551.85,1396.58 564.85,1393.58 577.5,1389.5C 583.869,1390.01 590.202,1390.51 596.5,1391C 602.886,1387.81 609.22,1384.64 615.5,1381.5C 1011.8,1291.39 1408.13,1201.39 1804.5,1111.5 Z"/></g>
<g><path style="opacity:1" fill="#d1b085" d="M 1803.5,1127.5 C 1803.5,1130.5 1803.5,1133.5 1803.5,1136.5C 1377.28,1233.6 950.949,1330.6 524.5,1427.5C 525.213,1424.41 526.213,1421.41 527.5,1418.5C 528.167,1417.5 528.833,1416.5 529.5,1415.5C 529.917,1416.12 530.584,1416.46 531.5,1416.5C 554.431,1411.01 577.431,1405.85 600.5,1401C 1001.49,1309.27 1402.49,1218.1 1803.5,1127.5 Z"/></g>
<g><path style="opacity:1" fill="#a05e26" d="M 658.5,1112.5 C 662.954,1119.74 666.621,1127.41 669.5,1135.5C 674.363,1135.18 679.03,1135.51 683.5,1136.5C 678.156,1136.67 672.823,1136.5 667.5,1136C 664.004,1128.34 661.004,1120.51 658.5,1112.5 Z"/></g>
<g><path style="opacity:0.991" fill="#532c12" d="M 344.5,1135.5 C 384.729,1195.21 428.396,1252.55 475.5,1307.5C 476.325,1308.39 477.325,1308.72 478.5,1308.5C 474.933,1311.88 471.1,1315.22 467,1318.5C 464.495,1322.58 461.495,1326.25 458,1329.5C 452.372,1337.56 447.205,1345.89 442.5,1354.5C 433.744,1371.56 426.91,1389.22 422,1407.5C 420.522,1413.56 419.188,1419.56 418,1425.5C 408.291,1477.61 411.124,1528.95 426.5,1579.5C 389.128,1483.06 352.128,1386.39 315.5,1289.5C 318.741,1236.96 328.408,1185.63 344.5,1135.5 Z"/></g>
<g><path style="opacity:0.999" fill="#e5c99e" d="M 1803.5,1136.5 C 1803.47,1141.86 1803.81,1147.2 1804.5,1152.5C 1375.9,1249.48 947.231,1346.81 518.5,1444.5C 520.111,1439.19 521.778,1433.86 523.5,1428.5C 523.5,1427.83 523.833,1427.5 524.5,1427.5C 950.949,1330.6 1377.28,1233.6 1803.5,1136.5 Z"/></g>
<g><path style="opacity:1" fill="#854d1f" d="M 683.5,1146.5 C 689.705,1147.07 695.705,1148.57 701.5,1151C 715.028,1157.69 724.028,1168.19 728.5,1182.5C 722.766,1183.19 716.933,1183.85 711,1184.5C 710.617,1183.94 710.117,1183.61 709.5,1183.5C 708.408,1176.9 705.074,1171.74 699.5,1168C 694.115,1165.26 688.449,1163.43 682.5,1162.5C 680.856,1157.04 678.522,1151.88 675.5,1147C 678.146,1146.5 680.813,1146.34 683.5,1146.5 Z"/></g>
<g><path style="opacity:0.999" fill="#d1b186" d="M 1804.5,1152.5 C 1804.5,1155.5 1804.5,1158.5 1804.5,1161.5C 1374.98,1258.88 945.647,1356.55 516.5,1454.5C 516.575,1451.79 516.908,1449.13 517.5,1446.5C 518.338,1446.16 518.672,1445.49 518.5,1444.5C 947.231,1346.81 1375.9,1249.48 1804.5,1152.5 Z"/></g>
<g><path style="opacity:0.999" fill="#e5c99e" d="M 1804.5,1161.5 C 1804.91,1166.91 1805.57,1172.24 1806.5,1177.5C 1798.1,1178.57 1789.77,1180.07 1781.5,1182C 1359.39,1277.95 937.055,1374.12 514.5,1470.5C 513.571,1469.31 513.238,1467.98 513.5,1466.5C 513.911,1462.78 514.578,1459.11 515.5,1455.5C 515.5,1454.83 515.833,1454.5 516.5,1454.5C 945.647,1356.55 1374.98,1258.88 1804.5,1161.5 Z"/></g>
<g><path style="opacity:1" fill="#f5bd43" d="M 682.5,1162.5 C 688.449,1163.43 694.115,1165.26 699.5,1168C 705.074,1171.74 708.408,1176.9 709.5,1183.5C 710.007,1188.12 709.174,1192.45 707,1196.5C 697.954,1206.98 686.454,1211.15 672.5,1209C 655.962,1204.5 649.462,1194 653,1177.5C 660.027,1167.07 669.861,1162.07 682.5,1162.5 Z"/></g>
<g><path style="opacity:1" fill="#d1b085" d="M 1806.5,1177.5 C 1806.37,1180.57 1806.7,1183.57 1807.5,1186.5C 1375.63,1283.74 943.96,1381.74 512.5,1480.5C 512.5,1477.5 512.5,1474.5 512.5,1471.5C 512.216,1469.59 512.549,1467.92 513.5,1466.5C 513.238,1467.98 513.571,1469.31 514.5,1470.5C 937.055,1374.12 1359.39,1277.95 1781.5,1182C 1789.77,1180.07 1798.1,1178.57 1806.5,1177.5 Z"/></g>
<g><path style="opacity:0.999" fill="#e5c99e" d="M 1807.5,1186.5 C 1807.84,1191.55 1808.51,1196.55 1809.5,1201.5C 1377.21,1299.48 944.874,1397.48 512.5,1495.5C 512.5,1490.5 512.5,1485.5 512.5,1480.5C 943.96,1381.74 1375.63,1283.74 1807.5,1186.5 Z"/></g>
<g><path style="opacity:1" fill="#d1b085" d="M 1809.5,1201.5 C 1809.5,1201.83 1809.5,1202.17 1809.5,1202.5C 1809.5,1203.5 1809.5,1204.5 1809.5,1205.5C 1809.99,1207.81 1810.33,1210.14 1810.5,1212.5C 1809.85,1211.91 1809.18,1211.24 1808.5,1210.5C 1382.86,1307.94 957.194,1404.77 531.5,1501C 525.821,1502.5 520.154,1504 514.5,1505.5C 513.548,1507.05 513.215,1508.71 513.5,1510.5C 512.549,1509.08 512.216,1507.41 512.5,1505.5C 512.81,1502.29 512.477,1499.29 511.5,1496.5C 511.5,1491.5 511.5,1486.5 511.5,1481.5C 511.5,1480.83 511.833,1480.5 512.5,1480.5C 512.5,1485.5 512.5,1490.5 512.5,1495.5C 944.874,1397.48 1377.21,1299.48 1809.5,1201.5 Z"/></g>
<g><path style="opacity:1" fill="#e5c99e" d="M 1810.5,1212.5 C 1811.64,1216.07 1812.31,1219.74 1812.5,1223.5C 1812.53,1224.5 1812.03,1225.16 1811,1225.5C 1379.37,1324.09 947.534,1422.42 515.5,1520.5C 514.419,1517.37 513.753,1514.04 513.5,1510.5C 513.215,1508.71 513.548,1507.05 514.5,1505.5C 520.154,1504 525.821,1502.5 531.5,1501C 957.194,1404.77 1382.86,1307.94 1808.5,1210.5C 1809.18,1211.24 1809.85,1211.91 1810.5,1212.5 Z"/></g>
<g><path style="opacity:1" fill="#854d20" d="M 1809.5,1205.5 C 1841.08,1253.6 1872.91,1301.6 1905,1349.5C 1905.46,1350.74 1904.96,1351.58 1903.5,1352C 1503.21,1443.05 1102.88,1533.88 702.5,1624.5C 701.5,1624.5 700.5,1624.5 699.5,1624.5C 698.376,1620.46 697.043,1616.46 695.5,1612.5C 697.594,1611.48 699.594,1610.48 701.5,1609.5C 1086.87,1521.15 1472.2,1432.82 1857.5,1344.5C 1855.96,1339.08 1853.62,1334.08 1850.5,1329.5C 1849.02,1325.21 1847.02,1321.21 1844.5,1317.5C 1843.26,1312.75 1841.26,1308.42 1838.5,1304.5C 1837.74,1300.86 1836.4,1297.53 1834.5,1294.5C 1833.54,1290.62 1832.21,1286.95 1830.5,1283.5C 1829.2,1278.61 1827.54,1273.94 1825.5,1269.5C 1824.7,1265.77 1823.7,1262.1 1822.5,1258.5C 1821.46,1254.3 1820.12,1250.3 1818.5,1246.5C 1817.51,1242.52 1816.51,1238.52 1815.5,1234.5C 1815.26,1230.52 1814.26,1226.85 1812.5,1223.5C 1812.31,1219.74 1811.64,1216.07 1810.5,1212.5C 1810.33,1210.14 1809.99,1207.81 1809.5,1205.5 Z"/></g>
<g><path style="opacity:1" fill="#d1b085" d="M 1812.5,1223.5 C 1814.26,1226.85 1815.26,1230.52 1815.5,1234.5C 1382.9,1332.48 950.238,1430.81 517.5,1529.5C 517.167,1529.5 516.833,1529.5 516.5,1529.5C 516.326,1527.14 515.993,1524.81 515.5,1522.5C 515.5,1521.83 515.5,1521.17 515.5,1520.5C 947.534,1422.42 1379.37,1324.09 1811,1225.5C 1812.03,1225.16 1812.53,1224.5 1812.5,1223.5 Z"/></g>
<g><path style="opacity:1" fill="#e5c99e" d="M 1815.5,1234.5 C 1816.51,1238.52 1817.51,1242.52 1818.5,1246.5C 1818.5,1247.5 1818.5,1248.5 1818.5,1249.5C 1386.35,1347.73 954.014,1445.73 521.5,1543.5C 519.595,1539.1 518.261,1534.44 517.5,1529.5C 950.238,1430.81 1382.9,1332.48 1815.5,1234.5 Z"/></g>
<g><path style="opacity:1" fill="#d1b085" d="M 1818.5,1246.5 C 1820.12,1250.3 1821.46,1254.3 1822.5,1258.5C 1392.34,1355.69 962.34,1453.19 532.5,1551C 529.602,1551.44 527.269,1552.6 525.5,1554.5C 524.833,1553.5 524.167,1552.5 523.5,1551.5C 523.233,1549.03 522.566,1546.7 521.5,1544.5C 521.5,1544.17 521.5,1543.83 521.5,1543.5C 954.014,1445.73 1386.35,1347.73 1818.5,1249.5C 1818.5,1248.5 1818.5,1247.5 1818.5,1246.5 Z"/></g>
<g><path style="opacity:1" fill="#e5c99e" d="M 1822.5,1258.5 C 1823.7,1262.1 1824.7,1265.77 1825.5,1269.5C 1825.67,1270.82 1825.34,1271.99 1824.5,1273C 1448.5,1358.01 1072.5,1443.68 696.5,1530C 641.167,1542.28 585.834,1554.45 530.5,1566.5C 528.835,1562.5 527.168,1558.5 525.5,1554.5C 527.269,1552.6 529.602,1551.44 532.5,1551C 962.34,1453.19 1392.34,1355.69 1822.5,1258.5 Z"/></g>
<g><path style="opacity:1" fill="#d1b085" d="M 1825.5,1269.5 C 1827.54,1273.94 1829.2,1278.61 1830.5,1283.5C 1825.87,1282.46 1821.2,1282.63 1816.5,1284C 1389.62,1381.59 962.615,1478.76 535.5,1575.5C 535.5,1574.83 535.167,1574.5 534.5,1574.5C 533.404,1571.97 532.071,1569.64 530.5,1567.5C 530.5,1567.17 530.5,1566.83 530.5,1566.5C 585.834,1554.45 641.167,1542.28 696.5,1530C 1072.5,1443.68 1448.5,1358.01 1824.5,1273C 1825.34,1271.99 1825.67,1270.82 1825.5,1269.5 Z"/></g>
<g><path style="opacity:1" fill="#e5c99e" d="M 1830.5,1283.5 C 1832.21,1286.95 1833.54,1290.62 1834.5,1294.5C 1834.21,1295.65 1833.38,1296.32 1832,1296.5C 1402.75,1393.72 973.58,1491.38 544.5,1589.5C 544.167,1589.5 543.833,1589.5 543.5,1589.5C 540.833,1584.83 538.167,1580.17 535.5,1575.5C 962.615,1478.76 1389.62,1381.59 1816.5,1284C 1821.2,1282.63 1825.87,1282.46 1830.5,1283.5 Z"/></g>
<g><path style="opacity:1" fill="#d1b085" d="M 1834.5,1294.5 C 1836.4,1297.53 1837.74,1300.86 1838.5,1304.5C 1410.77,1401.58 983.106,1498.75 555.5,1596C 553.509,1596.37 551.842,1597.21 550.5,1598.5C 549.833,1597.83 549.167,1597.17 548.5,1596.5C 546.902,1594.3 545.569,1591.97 544.5,1589.5C 973.58,1491.38 1402.75,1393.72 1832,1296.5C 1833.38,1296.32 1834.21,1295.65 1834.5,1294.5 Z"/></g>
<g><path style="opacity:1" fill="#e5c99e" d="M 1838.5,1304.5 C 1841.26,1308.42 1843.26,1312.75 1844.5,1317.5C 1817.08,1324.77 1789.42,1331.6 1761.5,1338C 1360.81,1428.51 960.147,1519.34 559.5,1610.5C 556.512,1606.54 553.512,1602.54 550.5,1598.5C 551.842,1597.21 553.509,1596.37 555.5,1596C 983.106,1498.75 1410.77,1401.58 1838.5,1304.5 Z"/></g>
<g><path style="opacity:1" fill="#97572b" d="M 541.5,1316.5 C 525.594,1323.46 512.261,1333.79 501.5,1347.5C 498.152,1350.85 495.152,1354.52 492.5,1358.5C 488.399,1363.7 485.065,1369.37 482.5,1375.5C 479.992,1379.18 477.992,1383.18 476.5,1387.5C 474.11,1392.34 472.11,1397.34 470.5,1402.5C 468.39,1406.5 467.057,1410.84 466.5,1415.5C 464.675,1420.25 463.342,1425.25 462.5,1430.5C 461.097,1433.91 460.43,1437.58 460.5,1441.5C 459.083,1445 458.417,1448.66 458.5,1452.5C 457.513,1457.31 457.179,1462.31 457.5,1467.5C 456.512,1472.64 456.179,1477.97 456.5,1483.5C 456.5,1486.83 456.5,1490.17 456.5,1493.5C 456.221,1498.59 456.555,1503.59 457.5,1508.5C 457.368,1511.57 457.701,1514.57 458.5,1517.5C 458.98,1522.53 459.647,1527.53 460.5,1532.5C 461.008,1536.74 462.008,1540.74 463.5,1544.5C 463.914,1548.66 464.914,1552.66 466.5,1556.5C 467.304,1559.58 468.304,1562.58 469.5,1565.5C 470.774,1570.32 472.441,1574.99 474.5,1579.5C 475.797,1583.08 477.463,1586.42 479.5,1589.5C 481.566,1593.97 483.9,1598.3 486.5,1602.5C 488.265,1605.71 490.265,1608.71 492.5,1611.5C 495.486,1615.82 498.82,1619.82 502.5,1623.5C 504.737,1626.68 507.403,1629.35 510.5,1631.5C 526.303,1647.73 545.636,1656.4 568.5,1657.5C 545.437,1659.98 524.771,1653.82 506.5,1639C 481.371,1616.27 464.204,1588.44 455,1555.5C 438.195,1493.43 443.528,1433.43 471,1375.5C 484.248,1348.59 504.415,1328.75 531.5,1316C 534.868,1315.46 538.201,1315.62 541.5,1316.5 Z"/></g>
<g><path style="opacity:1" fill="#d1b085" d="M 1844.5,1317.5 C 1847.02,1321.21 1849.02,1325.21 1850.5,1329.5C 1846.92,1328.41 1843.26,1328.24 1839.5,1329C 1417.55,1424.99 995.551,1520.99 573.5,1617C 571.277,1617.57 569.277,1618.4 567.5,1619.5C 566.833,1619.17 566.167,1618.83 565.5,1618.5C 564.219,1615.55 562.219,1613.22 559.5,1611.5C 559.5,1611.17 559.5,1610.83 559.5,1610.5C 960.147,1519.34 1360.81,1428.51 1761.5,1338C 1789.42,1331.6 1817.08,1324.77 1844.5,1317.5 Z"/></g>
<g><path style="opacity:1" fill="#e5c89d" d="M 1850.5,1329.5 C 1853.62,1334.08 1855.96,1339.08 1857.5,1344.5C 1472.2,1432.82 1086.87,1521.15 701.5,1609.5C 672.648,1615.88 643.982,1622.55 615.5,1629.5C 613.302,1629.12 611.635,1629.79 610.5,1631.5C 604.003,1634.91 597.67,1638.58 591.5,1642.5C 582.228,1636.23 574.228,1628.56 567.5,1619.5C 569.277,1618.4 571.277,1617.57 573.5,1617C 995.551,1520.99 1417.55,1424.99 1839.5,1329C 1843.26,1328.24 1846.92,1328.41 1850.5,1329.5 Z"/></g>
<g><path style="opacity:1" fill="#cb7e4a" d="M 1809.5,1202.5 C 1844.88,1252.55 1879.88,1302.89 1914.5,1353.5C 1510.67,1446.12 1106.67,1538.12 702.5,1629.5C 696.824,1629.67 691.157,1629.5 685.5,1629C 691.414,1627.94 697.08,1626.44 702.5,1624.5C 1102.88,1533.88 1503.21,1443.05 1903.5,1352C 1904.96,1351.58 1905.46,1350.74 1905,1349.5C 1872.91,1301.6 1841.08,1253.6 1809.5,1205.5C 1809.5,1204.5 1809.5,1203.5 1809.5,1202.5 Z"/></g>
<g><path style="opacity:1" fill="#aa906d" d="M 645.5,1366.5 C 635.187,1370.99 625.187,1375.99 615.5,1381.5C 609.22,1384.64 602.886,1387.81 596.5,1391C 590.202,1390.51 583.869,1390.01 577.5,1389.5C 571.332,1387.78 564.999,1386.78 558.5,1386.5C 559.347,1385.03 560.68,1384.2 562.5,1384C 589.739,1378.21 616.905,1372.04 644,1365.5C 644.765,1365.57 645.265,1365.9 645.5,1366.5 Z"/></g>
<g><path style="opacity:1" fill="#d1b086" d="M 558.5,1386.5 C 564.999,1386.78 571.332,1387.78 577.5,1389.5C 564.85,1393.58 551.85,1396.58 538.5,1398.5C 540.511,1395.14 542.511,1391.81 544.5,1388.5C 545.837,1387.69 546.837,1386.52 547.5,1385C 551.258,1384.69 554.924,1385.19 558.5,1386.5 Z"/></g>
<g><path style="opacity:1" fill="#a78d6a" d="M 544.5,1388.5 C 542.511,1391.81 540.511,1395.14 538.5,1398.5C 538.5,1399.17 538.167,1399.5 537.5,1399.5C 513.824,1404.84 490.157,1410.17 466.5,1415.5C 467.057,1410.84 468.39,1406.5 470.5,1402.5C 470.62,1403.59 471.287,1404.25 472.5,1404.5C 496.511,1399.16 520.511,1393.82 544.5,1388.5 Z"/></g>
<g><path style="opacity:1" fill="#b7a17e" d="M 537.5,1399.5 C 534.308,1404.55 531.642,1409.88 529.5,1415.5C 528.833,1416.5 528.167,1417.5 527.5,1418.5C 527.083,1417.88 526.416,1417.54 525.5,1417.5C 506.465,1422 487.465,1426.5 468.5,1431C 466.288,1431.79 464.288,1431.62 462.5,1430.5C 463.342,1425.25 464.675,1420.25 466.5,1415.5C 490.157,1410.17 513.824,1404.84 537.5,1399.5 Z"/></g>
<g><path style="opacity:1" fill="#a78d6a" d="M 527.5,1418.5 C 526.213,1421.41 525.213,1424.41 524.5,1427.5C 523.833,1427.5 523.5,1427.83 523.5,1428.5C 502.413,1432.35 481.413,1436.69 460.5,1441.5C 460.43,1437.58 461.097,1433.91 462.5,1430.5C 464.288,1431.62 466.288,1431.79 468.5,1431C 487.465,1426.5 506.465,1422 525.5,1417.5C 526.416,1417.54 527.083,1417.88 527.5,1418.5 Z"/></g>
<g><path style="opacity:1" fill="#b7a17e" d="M 523.5,1428.5 C 521.778,1433.86 520.111,1439.19 518.5,1444.5C 518.672,1445.49 518.338,1446.16 517.5,1446.5C 515.372,1445.37 513.039,1445.2 510.5,1446C 493.239,1450.15 475.905,1453.99 458.5,1457.5C 458.5,1455.83 458.5,1454.17 458.5,1452.5C 458.417,1448.66 459.083,1445 460.5,1441.5C 481.413,1436.69 502.413,1432.35 523.5,1428.5 Z"/></g>
<g><path style="opacity:1" fill="#a78d6a" d="M 517.5,1446.5 C 516.908,1449.13 516.575,1451.79 516.5,1454.5C 515.833,1454.5 515.5,1454.83 515.5,1455.5C 496.114,1459.18 476.78,1463.18 457.5,1467.5C 457.179,1462.31 457.513,1457.31 458.5,1452.5C 458.5,1454.17 458.5,1455.83 458.5,1457.5C 475.905,1453.99 493.239,1450.15 510.5,1446C 513.039,1445.2 515.372,1445.37 517.5,1446.5 Z"/></g>
<g><path style="opacity:1" fill="#b7a17e" d="M 515.5,1455.5 C 514.578,1459.11 513.911,1462.78 513.5,1466.5C 512.549,1467.92 512.216,1469.59 512.5,1471.5C 493.72,1474.86 475.053,1478.86 456.5,1483.5C 456.179,1477.97 456.512,1472.64 457.5,1467.5C 476.78,1463.18 496.114,1459.18 515.5,1455.5 Z"/></g>
<g><path style="opacity:1" fill="#a78d6a" d="M 512.5,1471.5 C 512.5,1474.5 512.5,1477.5 512.5,1480.5C 511.833,1480.5 511.5,1480.83 511.5,1481.5C 492.968,1484.72 474.634,1488.72 456.5,1493.5C 456.5,1490.17 456.5,1486.83 456.5,1483.5C 475.053,1478.86 493.72,1474.86 512.5,1471.5 Z"/></g>
<g><path style="opacity:1" fill="#b7a17e" d="M 511.5,1481.5 C 511.5,1486.5 511.5,1491.5 511.5,1496.5C 493.454,1500.29 475.454,1504.29 457.5,1508.5C 456.555,1503.59 456.221,1498.59 456.5,1493.5C 474.634,1488.72 492.968,1484.72 511.5,1481.5 Z"/></g>
<g><path style="opacity:1" fill="#a78d6a" d="M 511.5,1496.5 C 512.477,1499.29 512.81,1502.29 512.5,1505.5C 494.582,1509.81 476.582,1513.81 458.5,1517.5C 457.701,1514.57 457.368,1511.57 457.5,1508.5C 475.454,1504.29 493.454,1500.29 511.5,1496.5 Z"/></g>
<g><path style="opacity:1" fill="#b7a17e" d="M 512.5,1505.5 C 512.216,1507.41 512.549,1509.08 513.5,1510.5C 513.753,1514.04 514.419,1517.37 515.5,1520.5C 515.5,1521.17 515.5,1521.83 515.5,1522.5C 511.553,1521.64 507.553,1521.81 503.5,1523C 489.195,1526.38 474.862,1529.55 460.5,1532.5C 459.647,1527.53 458.98,1522.53 458.5,1517.5C 476.582,1513.81 494.582,1509.81 512.5,1505.5 Z"/></g>
<g><path style="opacity:1" fill="#a78d6a" d="M 515.5,1522.5 C 515.993,1524.81 516.326,1527.14 516.5,1529.5C 499.043,1533.95 481.376,1537.95 463.5,1541.5C 463.5,1542.5 463.5,1543.5 463.5,1544.5C 462.008,1540.74 461.008,1536.74 460.5,1532.5C 474.862,1529.55 489.195,1526.38 503.5,1523C 507.553,1521.81 511.553,1521.64 515.5,1522.5 Z"/></g>
<g><path style="opacity:1" fill="#b7a17e" d="M 516.5,1529.5 C 516.833,1529.5 517.167,1529.5 517.5,1529.5C 518.261,1534.44 519.595,1539.1 521.5,1543.5C 521.5,1543.83 521.5,1544.17 521.5,1544.5C 503.151,1548.51 484.818,1552.51 466.5,1556.5C 464.914,1552.66 463.914,1548.66 463.5,1544.5C 463.5,1543.5 463.5,1542.5 463.5,1541.5C 481.376,1537.95 499.043,1533.95 516.5,1529.5 Z"/></g>
<g><path style="opacity:1" fill="#a78d6a" d="M 521.5,1544.5 C 522.566,1546.7 523.233,1549.03 523.5,1551.5C 523.119,1552.93 522.119,1553.76 520.5,1554C 503.464,1557.77 486.464,1561.61 469.5,1565.5C 468.304,1562.58 467.304,1559.58 466.5,1556.5C 484.818,1552.51 503.151,1548.51 521.5,1544.5 Z"/></g>
<g><path style="opacity:1" fill="#b7a17e" d="M 523.5,1551.5 C 524.167,1552.5 524.833,1553.5 525.5,1554.5C 527.168,1558.5 528.835,1562.5 530.5,1566.5C 530.5,1566.83 530.5,1567.17 530.5,1567.5C 511.833,1571.5 493.167,1575.5 474.5,1579.5C 472.441,1574.99 470.774,1570.32 469.5,1565.5C 486.464,1561.61 503.464,1557.77 520.5,1554C 522.119,1553.76 523.119,1552.93 523.5,1551.5 Z"/></g>
<g><path style="opacity:1" fill="#a78d6a" d="M 530.5,1567.5 C 532.071,1569.64 533.404,1571.97 534.5,1574.5C 534.38,1575.59 533.713,1576.25 532.5,1576.5C 514.5,1580.1 496.833,1584.43 479.5,1589.5C 477.463,1586.42 475.797,1583.08 474.5,1579.5C 493.167,1575.5 511.833,1571.5 530.5,1567.5 Z"/></g>
<g><path style="opacity:1" fill="#b7a17e" d="M 534.5,1574.5 C 535.167,1574.5 535.5,1574.83 535.5,1575.5C 538.167,1580.17 540.833,1584.83 543.5,1589.5C 524.5,1593.94 505.5,1598.28 486.5,1602.5C 483.9,1598.3 481.566,1593.97 479.5,1589.5C 496.833,1584.43 514.5,1580.1 532.5,1576.5C 533.713,1576.25 534.38,1575.59 534.5,1574.5 Z"/></g>
<g><path style="opacity:1" fill="#a78d6a" d="M 543.5,1589.5 C 543.833,1589.5 544.167,1589.5 544.5,1589.5C 545.569,1591.97 546.902,1594.3 548.5,1596.5C 548.209,1597.65 547.376,1598.32 546,1598.5C 527.855,1602.16 510.022,1606.49 492.5,1611.5C 490.265,1608.71 488.265,1605.71 486.5,1602.5C 505.5,1598.28 524.5,1593.94 543.5,1589.5 Z"/></g>
<g><path style="opacity:1" fill="#b7a17e" d="M 548.5,1596.5 C 549.167,1597.17 549.833,1597.83 550.5,1598.5C 553.512,1602.54 556.512,1606.54 559.5,1610.5C 559.5,1610.83 559.5,1611.17 559.5,1611.5C 540.478,1615.39 521.478,1619.39 502.5,1623.5C 498.82,1619.82 495.486,1615.82 492.5,1611.5C 510.022,1606.49 527.855,1602.16 546,1598.5C 547.376,1598.32 548.209,1597.65 548.5,1596.5 Z"/></g>
<g><path style="opacity:1" fill="#a78d6a" d="M 559.5,1611.5 C 562.219,1613.22 564.219,1615.55 565.5,1618.5C 547.369,1623.2 529.036,1627.53 510.5,1631.5C 507.403,1629.35 504.737,1626.68 502.5,1623.5C 521.478,1619.39 540.478,1615.39 559.5,1611.5 Z"/></g>
<g><path style="opacity:1" fill="#9a5a2d" d="M 701.5,1609.5 C 699.594,1610.48 697.594,1611.48 695.5,1612.5C 697.043,1616.46 698.376,1620.46 699.5,1624.5C 700.5,1624.5 701.5,1624.5 702.5,1624.5C 697.08,1626.44 691.414,1627.94 685.5,1629C 691.157,1629.5 696.824,1629.67 702.5,1629.5C 695.687,1630.49 688.687,1630.82 681.5,1630.5C 659.673,1629.5 637.673,1629.17 615.5,1629.5C 643.982,1622.55 672.648,1615.88 701.5,1609.5 Z"/></g>
<g><path style="opacity:1" fill="#b7a17e" d="M 565.5,1618.5 C 566.167,1618.83 566.833,1619.17 567.5,1619.5C 574.228,1628.56 582.228,1636.23 591.5,1642.5C 584.041,1647.74 576.374,1652.74 568.5,1657.5C 545.636,1656.4 526.303,1647.73 510.5,1631.5C 529.036,1627.53 547.369,1623.2 565.5,1618.5 Z"/></g>
<g><path style="opacity:1" fill="#6d3d1b" d="M 615.5,1629.5 C 637.673,1629.17 659.673,1629.5 681.5,1630.5C 657.788,1630.19 634.122,1630.52 610.5,1631.5C 611.635,1629.79 613.302,1629.12 615.5,1629.5 Z"/></g>
</svg>
